/* XPM */
static char * closed_icon[] = {
"8 8 3 1",
" 	c None",
".	c #000000000000",
"X	c #75D69248FFFF",
"   ..   ",
"   .X.  ",
"   .XX. ",
"   .XXX.",
"   .XXX.",
"   .XX. ",
"   .X.  ",
"   ..   "};
